<svg class="svg-icon" style="width: 1em; height: 1em;vertical-align: middle;fill: white;overflow: hidden;" viewBox="0 0 1024 1024" version="1.1" xmlns="http://www.w3.org/2000/svg"><path d="M777.846154 636.061538v13.784616c0 19.692308 13.784615 19.692308 25.6 7.876923l96.492308-96.492308c9.846154-11.815385 29.538462-11.815385 41.353846 0l41.353846 41.353846c11.815385 9.846154 11.815385 29.538462 0 41.353847L728.615385 897.969231c-9.846154 9.846154-25.6 9.846154-35.446154 0l-256-256c-9.846154-11.815385-9.846154-25.6 1.969231-37.415385l43.323076-43.323077c11.815385-11.815385 29.538462-13.784615 41.353847-1.969231l96.492307 96.492308c13.784615 13.784615 25.6 17.723077 33.476923 1.969231 1.969231-5.907692 1.969231-21.661538 1.969231-21.661539V492.307692c0-139.815385-112.246154-252.061538-252.061538-252.061538S151.630769 350.523077 151.630769 490.338462v261.907692c0 15.753846-13.784615 27.569231-29.538461 27.569231H59.076923c-15.753846 0-27.569231-9.846154-27.569231-25.6V490.338462C31.507692 285.538462 196.923077 118.153846 403.692308 118.153846s372.184615 167.384615 372.184615 372.184616l1.969231 145.723076z"  /></svg>